<?xml version="1.0" encoding="UTF-8"?>
<!DOCTYPE svg PUBLIC "-//W3C//DTD SVG 1.1//EN" "http://www.w3.org/Graphics/SVG/1.1/DTD/svg11.dtd">
<svg xmlns="http://www.w3.org/2000/svg" version="1.1" width="108px" height="35px" style="shape-rendering:geometricPrecision; text-rendering:geometricPrecision; image-rendering:optimizeQuality; fill-rule:evenodd; clip-rule:evenodd" xmlns:xlink="http://www.w3.org/1999/xlink">
<g><path style="opacity:0.649" fill="#ba9b65" d="M 15.5,-0.5 C 16.1667,-0.5 16.8333,-0.5 17.5,-0.5C 13.0982,5.40858 8.09816,10.9086 2.5,16C 3.83333,16.6667 5.16667,16.6667 6.5,16C 12.0363,10.6314 17.3697,5.13136 22.5,-0.5C 23.1667,-0.5 23.8333,-0.5 24.5,-0.5C 20.0982,5.40858 15.0982,10.9086 9.5,16C 42.165,16.5 74.8316,16.6666 107.5,16.5C 107.5,16.8333 107.5,17.1667 107.5,17.5C 74.8316,17.3334 42.165,17.5 9.5,18C 15.0982,23.0914 20.0982,28.5914 24.5,34.5C 23.8333,34.5 23.1667,34.5 22.5,34.5C 17.123,28.1216 11.123,22.4549 4.5,17.5C 3.83333,17.6667 3.16667,17.8333 2.5,18C 8.09816,23.0914 13.0982,28.5914 17.5,34.5C 16.8333,34.5 16.1667,34.5 15.5,34.5C 10.5,28.8333 5.16667,23.5 -0.5,18.5C -0.5,17.5 -0.5,16.5 -0.5,15.5C 5.16667,10.5 10.5,5.16667 15.5,-0.5 Z"/></g>
</svg>
